<?xml version="1.0" encoding="UTF-8"?>
<svg enable-background="new 0 0 350 89.5" version="1.1" viewBox="0 0 350 89.5" xml:space="preserve" xmlns="http://www.w3.org/2000/svg">
<style type="text/css">
	.st0{fill:#FFFFFF;}
	.st1{fill:#FDFEFE;}
	.st2{fill:#85BD41;}
	.st3{enable-background:new;}
</style>
<g transform="translate(-12 -18141)">
	<g transform="translate(785 141)">
		<path class="st0" d="m-733.8 18012v-12.4h-5.2v3.9c-2.4 0.2-4.8 0.6-7.1 1.3l-1.4-3.6-4.7 1.9 1.4 3.6c-2.5 1.2-4.9 2.7-7 4.6l-2.7-2.7-3.6 3.6 2.7 2.7c-1.8 2.1-3.3 4.4-4.5 6.8l-3.6-1.4-1.9 4.7 3.6 1.4c-0.7 2.4-1.2 4.8-1.4 7.3h-3.8v5.1h11.2c0-14.8 12-26.7 26.7-26.7l1.3-0.1"/>
		<path class="st1" d="m-423 18050v-5.1h-12.5c0 14.7-12 26.6-26.7 26.6v12.4h5.2v-3.9c2.4-0.2 4.8-0.6 7.1-1.3l1.4 3.6 4.7-1.8-1.4-3.6c2.5-1.2 4.8-2.7 7-4.5l2.7 2.7 3.6-3.6-2.7-2.7c1.8-2.1 3.3-4.3 4.5-6.8l3.6 1.4 1.9-4.7-3.6-1.4c0.7-2.4 1.2-4.8 1.4-7.3h3.8z"/>
		<path class="st0" d="m-457.2 18037c-4.5-1.6-8.5-2.6-8.5-5v-0.2c0-1.6 1.5-2.9 4.4-2.9 3.1 0 7.2 1.5 11.3 3.9l4.5-8.2c-4.6-3.1-10-4.8-15.6-4.8-8.4 0-15.3 4.7-15.3 13.2v0.2c0 8.1 6.6 10.8 12.5 12.5 4.6 1.4 8.6 2.3 8.6 4.8v0.2c0 1.8-1.6 3.1-5 3.1-3.9 0-8.6-1.7-13.2-5l-4.2 6.4-11.9-18.4 15.9-16.4h-14.2l-13.8 15.2v-30.3h-11.8v14.8c-5.8 0.2-10.3 3.4-12.9 6.3v-6h-11.8v15c-2.5-9.2-11-15.8-21.7-15.8-7.9-0.1-15.3 3.8-19.5 10.5l3-9.7h-11.7l-6.8 25.4-7.9-25.5h-10.2l-7.8 25.4-6.7-25.3h-12l12.8 42h10.6l8.2-25.5 8 25.6h10.7l6.9-22.3c0 0.4-0.1 0.8-0.1 1.2v0.2c0 12 9.6 21.5 22.5 21.5 10.8 0 19.3-6.7 21.9-16v15.1h15.5v-21h-3.6v-4.9c8.5-4.8 13-7.1 13-7.1v33h11.8v-12.7l4.1-4.4 10.9 17.1h13.5l-2.2-3.3c4.4 2.7 9.5 4.1 14.7 4.1 9 0 16-4.2 16-13.5v-0.2c-0.3-7.6-7.1-10.5-12.9-12.3m-92 4.5c0 6.2-4.1 11.4-10.8 11.4-6.5 0-11-5.4-11-11.5v-0.2c0-6.2 4.1-11.4 10.8-11.4 6.5 0 11 5.4 11 11.5v0.2z"/>
		<path class="st2" d="m-656.7 18019c-11.3 0-20 7.3-22.2 17.1-1.7-9.4-8.1-17.1-19.8-17.1-12.2 0-20.6 9.8-20.6 21.7v0.2c0 1 0.1 1.9 0.2 2.9-2.2-4.1-7.1-6.1-11.5-7.5-4.5-1.6-8.5-2.6-8.5-5v-0.2c0-1.6 1.5-2.9 4.4-2.9 3.1 0 7.2 1.5 11.3 3.9l4.5-8.2c-4.6-3.1-10-4.8-15.6-4.8-8.4 0-15.3 4.7-15.3 13.2v0.2c0 8.1 6.6 10.8 12.5 12.5 4.6 1.4 8.6 2.3 8.6 4.8v0.2c0 1.8-1.6 3.1-5 3.1-3.9 0-8.6-1.7-13.2-5l-5.1 7.8c5.1 4 11.4 6.3 17.9 6.3 9.1 0 16-4.2 16-13.5v-0.1c3 8.4 10.7 13.6 20.5 13.6 7.5 0 13.2-2.9 17.1-7.8l-6.8-6c-3.3 3-6.2 4.3-10.1 4.3-5.3 0-9-2.8-10.2-8.2h28.5c1.8 10.1 10.6 17.6 22.2 17.6 13 0 22.6-9.7 22.6-21.7v-0.2c0-11.6-9.5-21.2-22.4-21.2m-51.1 18.4c0.9-5.4 4.1-8.9 9-8.9 5 0 8.1 3.6 8.8 8.9h-17.8zm61.9 3.5c0 6.2-4.1 11.4-10.8 11.4-6.5 0-11-5.4-11-11.5v-0.2c0-6.2 4.1-11.4 10.8-11.4 6.5 0 11 5.4 11 11.5v0.2z"/>
		<path class="st0" d="m-434.4 18023h1.2v-6.1l2.8 4.3h0.2l2.8-4.3v6.1h1.1v-8h-1.2l-2.8 4.4-2.8-4.4h-1.2v8zm-5.5 0h1.2v-6.8h2.6v-1.1h-6.3v1.1h2.6l-0.1 6.8z"/>
	</g>
	<g class="st3">
		<path class="st0" d="m39.5 18224c0.5 0 1-0.1 1.7-0.3v2c-0.7 0.3-1.5 0.4-2.5 0.4-1.1 0-1.9-0.3-2.3-0.8s-0.7-1.4-0.7-2.4v-4.7h-1.3v-1.1l1.5-0.9 0.8-2.1h1.7v2.1h2.8v2h-2.8v4.7c0 0.4 0.1 0.7 0.3 0.8s0.5 0.3 0.8 0.3z"/>
		<path class="st0" d="m53.2 18226h-2.7v-5.7c0-1.4-0.5-2.1-1.6-2.1-0.8 0-1.3 0.3-1.6 0.8s-0.5 1.3-0.5 2.5v4.6h-2.7v-13.7h2.7v2.8c0 0.2 0 0.7-0.1 1.5l-0.1 0.8h0.1c0.6-1 1.5-1.4 2.8-1.4 1.2 0 2 0.3 2.6 0.9s0.9 1.5 0.9 2.7v6.3z"/>
		<path class="st0" d="m61.3 18226c-1.6 0-2.8-0.4-3.7-1.3s-1.3-2.1-1.3-3.7 0.4-2.9 1.2-3.8 2-1.3 3.4-1.3 2.5 0.4 3.2 1.2 1.2 1.9 1.2 3.3v1.3h-6.3c0 0.8 0.3 1.4 0.7 1.8s1 0.6 1.8 0.6c0.6 0 1.2-0.1 1.7-0.2s1.1-0.3 1.7-0.6v2.1c-0.5 0.2-1 0.4-1.5 0.5-0.7 0-1.3 0.1-2.1 0.1zm-0.4-8.3c-0.6 0-1 0.2-1.3 0.5-0.3 0.4-0.5 0.9-0.6 1.5h3.8c0-0.7-0.2-1.2-0.5-1.5-0.4-0.3-0.8-0.5-1.4-0.5z"/>
		<path class="st0" d="m83 18226h-2.7v-5.7c0-0.7-0.1-1.2-0.4-1.6s-0.7-0.5-1.2-0.5c-0.8 0-1.3 0.3-1.6 0.8s-0.5 1.3-0.5 2.5v4.6h-2.6v-9.8h2l0.4 1.3h0.1c0.3-0.5 0.7-0.8 1.2-1.1 0.5-0.2 1.1-0.4 1.8-0.4 1.1 0 2 0.3 2.6 0.9s0.9 1.5 0.9 2.7v6.3z"/>
		<path class="st0" d="m92.9 18226l-0.5-1.3h-0.1c-0.5 0.6-0.9 1-1.4 1.2s-1.1 0.3-1.9 0.3c-0.9 0-1.7-0.3-2.2-0.8s-0.8-1.3-0.8-2.3 0.4-1.8 1.1-2.3 1.8-0.8 3.3-0.8l1.7-0.1v-0.4c0-1-0.5-1.5-1.5-1.5-0.8 0-1.7 0.2-2.8 0.7l-0.9-1.8c1.1-0.6 2.4-0.9 3.8-0.9 1.3 0 2.3 0.3 3 0.9s1.1 1.4 1.1 2.6v6.5h-1.9zm-0.8-4.5h-1c-0.8 0-1.4 0.2-1.7 0.4s-0.6 0.7-0.6 1.2c0 0.8 0.4 1.1 1.3 1.1 0.6 0 1.1-0.2 1.5-0.5s0.6-0.8 0.6-1.4v-0.8z"/>
		<path class="st0" d="m107.3 18226h-2.7v-5.7c0-0.7-0.1-1.2-0.4-1.6s-0.6-0.5-1.1-0.5c-0.7 0-1.2 0.3-1.5 0.8s-0.5 1.3-0.5 2.5v4.6h-2.7v-9.8h2l0.4 1.3h0.1c0.3-0.5 0.6-0.8 1.1-1.1s1.1-0.4 1.7-0.4c1.5 0 2.5 0.5 3 1.4h0.2c0.3-0.5 0.7-0.8 1.2-1.1s1.1-0.4 1.7-0.4c1.1 0 2 0.3 2.5 0.9 0.6 0.6 0.9 1.5 0.9 2.7v6.4h-2.7v-5.7c0-0.7-0.1-1.2-0.4-1.6s-0.6-0.5-1.1-0.5c-0.7 0-1.1 0.2-1.5 0.7s-0.5 1.2-0.5 2.2v4.9z"/>
		<path class="st0" d="m121.5 18226c-1.6 0-2.8-0.4-3.7-1.3s-1.3-2.1-1.3-3.7 0.4-2.9 1.2-3.8 2-1.3 3.4-1.3 2.5 0.4 3.2 1.2 1.2 1.9 1.2 3.3v1.3h-6.3c0 0.8 0.3 1.4 0.7 1.8s1 0.6 1.8 0.6c0.6 0 1.2-0.1 1.7-0.2s1.1-0.3 1.7-0.6v2.1c-0.5 0.2-1 0.4-1.5 0.5-0.7 0-1.3 0.1-2.1 0.1zm-0.4-8.3c-0.6 0-1 0.2-1.3 0.5-0.3 0.4-0.5 0.9-0.6 1.5h3.8c0-0.7-0.2-1.2-0.5-1.5-0.4-0.3-0.8-0.5-1.4-0.5z"/>
		<path class="st0" d="m138.3 18224c0.5 0 1-0.1 1.7-0.3v2c-0.7 0.3-1.5 0.4-2.5 0.4-1.1 0-1.9-0.3-2.3-0.8s-0.7-1.4-0.7-2.4v-4.7h-1.3v-1.1l1.5-0.9 0.8-2.1h1.7v2.1h2.8v2h-2.8v4.7c0 0.4 0.1 0.7 0.3 0.8s0.4 0.3 0.8 0.3z"/>
		<path class="st0" d="m151.9 18226h-2.7v-5.7c0-1.4-0.5-2.1-1.6-2.1-0.8 0-1.3 0.3-1.6 0.8s-0.5 1.3-0.5 2.5v4.6h-2.7v-13.7h2.7v2.8c0 0.2 0 0.7-0.1 1.5l-0.1 0.8h0.1c0.6-1 1.5-1.4 2.8-1.4 1.2 0 2 0.3 2.6 0.9s0.9 1.5 0.9 2.7v6.3z"/>
		<path class="st0" d="m161.8 18226l-0.5-1.3h-0.1c-0.5 0.6-0.9 1-1.4 1.2s-1.1 0.3-1.9 0.3c-0.9 0-1.7-0.3-2.2-0.8s-0.8-1.3-0.8-2.3 0.4-1.8 1.1-2.3 1.8-0.8 3.3-0.8l1.7-0.1v-0.4c0-1-0.5-1.5-1.5-1.5-0.8 0-1.7 0.2-2.8 0.7l-0.9-1.8c1.1-0.6 2.4-0.9 3.8-0.9 1.3 0 2.3 0.3 3 0.9s1.1 1.4 1.1 2.6v6.5h-1.9zm-0.8-4.5h-1c-0.8 0-1.4 0.2-1.7 0.4s-0.6 0.7-0.6 1.2c0 0.8 0.4 1.1 1.3 1.1 0.6 0 1.1-0.2 1.5-0.5s0.6-0.8 0.6-1.4v-0.8z"/>
		<path class="st0" d="m171.5 18224c0.5 0 1-0.1 1.7-0.3v2c-0.7 0.3-1.5 0.4-2.5 0.4-1.1 0-1.9-0.3-2.3-0.8s-0.7-1.4-0.7-2.4v-4.7h-1.3v-1.1l1.5-0.9 0.8-2.1h1.7v2.1h2.8v2h-2.8v4.7c0 0.4 0.1 0.7 0.3 0.8s0.5 0.3 0.8 0.3z"/>
		<path class="st0" d="m187 18226c-1.2 0-2.1-0.4-2.7-1.3h-0.1c0.1 0.8 0.1 1.3 0.1 1.4v4h-2.7v-14.2h2.2l0.4 1.3h0.1c0.6-1 1.6-1.5 2.8-1.5s2.1 0.4 2.7 1.3 1 2.1 1 3.7c0 1.1-0.2 2-0.5 2.7s-0.7 1.4-1.3 1.8c-0.5 0.6-1.2 0.8-2 0.8zm-0.7-8c-0.7 0-1.1 0.2-1.5 0.6-0.3 0.4-0.5 1.1-0.5 2v0.3c0 1.1 0.2 1.8 0.5 2.3s0.8 0.7 1.5 0.7c1.2 0 1.8-1 1.8-3 0-1-0.1-1.7-0.4-2.2s-0.8-0.7-1.4-0.7z"/>
		<path class="st0" d="m198.4 18226c-1.6 0-2.8-0.4-3.7-1.3s-1.3-2.1-1.3-3.7 0.4-2.9 1.2-3.8 2-1.3 3.4-1.3 2.5 0.4 3.2 1.2 1.2 1.9 1.2 3.3v1.3h-6.3c0 0.8 0.3 1.4 0.7 1.8s1 0.6 1.8 0.6c0.6 0 1.2-0.1 1.7-0.2s1.1-0.3 1.7-0.6v2.1c-0.5 0.2-1 0.4-1.5 0.5-0.7 0-1.3 0.1-2.1 0.1zm-0.4-8.3c-0.6 0-1 0.2-1.3 0.5-0.3 0.4-0.5 0.9-0.6 1.5h3.8c0-0.7-0.2-1.2-0.5-1.5-0.4-0.3-0.8-0.5-1.4-0.5z"/>
		<path class="st0" d="m214.4 18221c0 1.6-0.4 2.9-1.3 3.8s-2 1.4-3.5 1.4c-0.9 0-1.8-0.2-2.5-0.6s-1.3-1-1.7-1.8-0.6-1.7-0.6-2.7c0-1.6 0.4-2.9 1.3-3.7s2-1.3 3.5-1.3c0.9 0 1.8 0.2 2.5 0.6s1.3 1 1.7 1.8 0.6 1.5 0.6 2.5zm-6.8 0c0 1 0.2 1.7 0.5 2.2s0.8 0.7 1.6 0.7c0.7 0 1.2-0.2 1.5-0.7s0.5-1.2 0.5-2.2-0.2-1.7-0.5-2.2-0.8-0.7-1.6-0.7c-0.7 0-1.2 0.2-1.5 0.7s-0.5 1.2-0.5 2.2z"/>
		<path class="st0" d="m222.9 18226c-1.2 0-2.1-0.4-2.7-1.3h-0.1c0.1 0.8 0.1 1.3 0.1 1.4v4h-2.7v-14.2h2.2l0.4 1.3h0.1c0.6-1 1.6-1.5 2.8-1.5s2.1 0.4 2.7 1.3 1 2.1 1 3.7c0 1.1-0.2 2-0.5 2.7-0.3 0.8-0.7 1.4-1.3 1.8-0.5 0.6-1.2 0.8-2 0.8zm-0.8-8c-0.7 0-1.1 0.2-1.5 0.6-0.3 0.4-0.5 1.1-0.5 2v0.3c0 1.1 0.2 1.8 0.5 2.3s0.8 0.7 1.5 0.7c1.2 0 1.8-1 1.8-3 0-1-0.1-1.7-0.4-2.2s-0.7-0.7-1.4-0.7z"/>
		<path class="st0" d="m232.5 18226h-2.7v-13.7h2.7v13.7z"/>
		<path class="st0" d="m240.7 18226c-1.6 0-2.8-0.4-3.7-1.3s-1.3-2.1-1.3-3.7 0.4-2.9 1.2-3.8 2-1.3 3.4-1.3 2.5 0.4 3.2 1.2 1.2 1.9 1.2 3.3v1.3h-6.3c0 0.8 0.3 1.4 0.7 1.8s1 0.6 1.8 0.6c0.6 0 1.2-0.1 1.7-0.2s1.1-0.3 1.7-0.6v2.1c-0.5 0.2-1 0.4-1.5 0.5-0.7 0-1.4 0.1-2.1 0.1zm-0.4-8.3c-0.6 0-1 0.2-1.3 0.5-0.3 0.4-0.5 0.9-0.6 1.5h3.8c0-0.7-0.2-1.2-0.5-1.5-0.4-0.3-0.9-0.5-1.4-0.5z"/>
		<path class="st0" d="m257.5 18224c0.5 0 1-0.1 1.7-0.3v2c-0.7 0.3-1.5 0.4-2.5 0.4-1.1 0-1.9-0.3-2.3-0.8s-0.7-1.4-0.7-2.4v-4.7h-1.3v-1.1l1.5-0.9 0.8-2.1h1.7v2.1h2.8v2h-2.8v4.7c0 0.4 0.1 0.7 0.3 0.8s0.4 0.3 0.8 0.3z"/>
		<path class="st0" d="m267.5 18216c0.4 0 0.7 0 0.9 0.1l-0.2 2.5c-0.2-0.1-0.5-0.1-0.8-0.1-0.9 0-1.5 0.2-2 0.7-0.5 0.4-0.7 1.1-0.7 1.8v5h-2.7v-9.8h2l0.4 1.7h0.1c0.3-0.6 0.7-1 1.2-1.3 0.6-0.4 1.2-0.6 1.8-0.6z"/>
		<path class="st0" d="m278.1 18226l-0.4-1.3h-0.1c-0.3 0.5-0.7 0.8-1.2 1.1-0.5 0.2-1.1 0.4-1.8 0.4-1.2 0-2-0.3-2.6-0.9s-0.9-1.5-0.9-2.7v-6.4h2.7v5.7c0 0.7 0.1 1.2 0.4 1.6s0.7 0.5 1.2 0.5c0.8 0 1.3-0.3 1.6-0.8s0.5-1.3 0.5-2.5v-4.6h2.7v9.8h-2.1z"/>
		<path class="st0" d="m290.7 18223c0 1-0.3 1.8-1 2.3s-1.7 0.8-3.1 0.8c-0.7 0-1.3 0-1.8-0.1s-1-0.2-1.4-0.4v-2.2c0.5 0.2 1.1 0.4 1.7 0.6s1.2 0.2 1.6 0.2c1 0 1.5-0.3 1.5-0.8 0-0.2-0.1-0.4-0.2-0.5s-0.4-0.3-0.7-0.4c-0.3-0.2-0.7-0.4-1.3-0.6-0.8-0.3-1.3-0.6-1.7-0.9s-0.6-0.6-0.8-0.9-0.2-0.8-0.2-1.3c0-0.9 0.3-1.5 1-2s1.6-0.7 2.9-0.7c1.2 0 2.3 0.3 3.5 0.8l-0.8 1.9c-0.5-0.2-1-0.4-1.4-0.5s-0.9-0.2-1.3-0.2c-0.8 0-1.2 0.2-1.2 0.6 0 0.2 0.1 0.4 0.4 0.6s0.8 0.4 1.7 0.8c0.8 0.3 1.3 0.6 1.7 0.9s0.6 0.6 0.8 0.9 0.1 0.6 0.1 1.1z"/>
		<path class="st0" d="m297.8 18224c0.5 0 1-0.1 1.7-0.3v2c-0.7 0.3-1.5 0.4-2.5 0.4-1.1 0-1.9-0.3-2.3-0.8-0.5-0.5-0.7-1.4-0.7-2.4v-4.7h-1.3v-1.1l1.5-0.9 0.8-2.1h1.7v2.1h2.8v2h-2.8v4.7c0 0.4 0.1 0.7 0.3 0.8 0.2 0.2 0.5 0.3 0.8 0.3z"/>
	</g>
</g>
</svg>
